<svg xmlns="http://www.w3.org/2000/svg" viewBox="0 0 1200 750" role="img" aria-label="AlphaGo versus Lee Sedol">
  <defs>
    <linearGradient id="bg" x1="0" y1="0" x2="1" y2="1">
      <stop offset="0" stop-color="#f6efe1"/>
      <stop offset=".55" stop-color="#dfe8f8"/>
      <stop offset="1" stop-color="#dceee3"/>
    </linearGradient>
  </defs>
  <rect width="1200" height="750" fill="url(#bg)"/>
  <rect x="168" y="108" width="864" height="540" rx="38" fill="#dfc48e" stroke="#8a6534" stroke-width="8"/>
  <g stroke="#8a6534" stroke-width="2" opacity=".55">
    <path d="M240 180 H960 M240 240 H960 M240 300 H960 M240 360 H960 M240 420 H960 M240 480 H960 M240 540 H960 M240 600 H960"/>
    <path d="M240 180 V600 M300 180 V600 M360 180 V600 M420 180 V600 M480 180 V600 M540 180 V600 M600 180 V600 M660 180 V600 M720 180 V600 M780 180 V600 M840 180 V600 M900 180 V600 M960 180 V600"/>
  </g>
  <g>
    <circle cx="540" cy="360" r="28" fill="#1f1f1f"/>
    <circle cx="600" cy="360" r="28" fill="#fff" stroke="#c9c9c9" stroke-width="3"/>
    <circle cx="600" cy="420" r="28" fill="#1f1f1f"/>
    <circle cx="540" cy="420" r="28" fill="#fff" stroke="#c9c9c9" stroke-width="3"/>
    <circle cx="660" cy="420" r="28" fill="#1f1f1f"/>
    <circle cx="480" cy="360" r="28" fill="#fff" stroke="#c9c9c9" stroke-width="3"/>
    <circle cx="720" cy="360" r="28" fill="#fff" stroke="#c9c9c9" stroke-width="3"/>
  </g>
  <text x="70" y="86" fill="#202124" font-family="Arial, sans-serif" font-size="32" font-weight="700">AlphaGo vs Lee Sedol</text>
  <text x="70" y="126" fill="#5f6368" font-family="Arial, sans-serif" font-size="22">The public moment when AI became tangible</text>
</svg>
